PathFileType	4	(X/Y/Z)	E:\3-PhD\Data\MocapData\ElaboratedData\015\pre\dynamicElaborations\RunA1\RunA1.trc
DataRate	CameraRate	NumFrames	NumMarkers	Units	OrigDataRate	DataStartFrame
200	200	4	61	mm	200	363
Frame#	Time	FHD			LBHD			RBHD			C7			T10			CLAV			LSHO			LUUPA			LMUPA			LDUPA			LLEP			LMEP			LRAD			LUL			LRFIN			RSHO			RUPA1			RMUPA			RDUPA			RLEP			RMEP			RRAD			RUL			RUFIN			LASI			RASI			USACR			LSACR			RSACR			LTHI1			LTHI2			LTHI3			LTHI4			LLFC			LMFC			LTIB1			LTIB2			LTIB3			LTIB4			LLMAL			LMMAL			LHEE			LMT1			LMT5			LMT2			RTHI			RTHI2			RTHI3			RTHI4			RLFC			RMFC			RTIB1			RTIB2			RTIB3			RTIB4			RLMAL			RMMAL			RHEE			RMT1			RMT2			RMT5		
		X1	Y1	Z1	X2	Y2	Z2	X3	Y3	Z3	X4	Y4	Z4	X5	Y5	Z5	X6	Y6	Z6	X7	Y7	Z7	X8	Y8	Z8	X9	Y9	Z9	X10	Y10	Z10	X11	Y11	Z11	X12	Y12	Z12	X13	Y13	Z13	X14	Y14	Z14	X15	Y15	Z15	X16	Y16	Z16	X17	Y17	Z17	X18	Y18	Z18	X19	Y19	Z19	X20	Y20	Z20	X21	Y21	Z21	X22	Y22	Z22	X23	Y23	Z23	X24	Y24	Z24	X25	Y25	Z25	X26	Y26	Z26	X27	Y27	Z27	X28	Y28	Z28	X29	Y29	Z29	X30	Y30	Z30	X31	Y31	Z31	X32	Y32	Z32	X33	Y33	Z33	X34	Y34	Z34	X35	Y35	Z35	X36	Y36	Z36	X37	Y37	Z37	X38	Y38	Z38	X39	Y39	Z39	X40	Y40	Z40	X41	Y41	Z41	X42	Y42	Z42	X43	Y43	Z43	X44	Y44	Z44	X45	Y45	Z45	X46	Y46	Z46	X47	Y47	Z47	X48	Y48	Z48	X49	Y49	Z49	X50	Y50	Z50	X51	Y51	Z51	X52	Y52	Z52	X53	Y53	Z53	X54	Y54	Z54	X55	Y55	Z55	X56	Y56	Z56	X57	Y57	Z57	X58	Y58	Z58	X59	Y59	Z59	X60	Y60	Z60	X61	Y61	Z61	

363	1.810000	-3450.712225	1496.836668	170.982449	-3583.952344	1552.148569	170.173021	-3586.748351	1549.011348	297.322585	-3718.643480	1453.957949	258.057207	-3886.830346	1155.865663	244.526355	-3620.288222	1328.657028	205.652650	-3665.696281	1460.569610	62.827299	-3816.269778	1409.081802	-44.311806	-3831.545692	1364.004532	-49.513032	-3876.655630	1394.811010	-71.953812	-3960.732941	1392.963494	-87.116395	-3985.502765	1362.480671	1.291358	-3976.963294	1116.660255	-127.018608	-3914.555993	1124.646363	-89.375119	-3888.269673	1040.662513	-123.755555	-3626.970065	1392.714929	398.533655	-3622.375319	1218.782479	469.266372	-3597.847628	1188.117160	442.152681	-3618.861479	1149.053847	482.547264	-3615.047504	1039.427150	469.927595	-3697.782791	1027.866097	437.041755	-3528.997031	1136.607324	240.451665	-3484.554646	1075.157306	230.052419	-3465.555077	1176.247701	207.742948	-3810.110859	976.551169	101.515025	-3800.648435	940.170139	345.276583	-3946.493150	1068.822283	241.057389	-3966.878606	1041.138602	215.420981	-3959.821717	1041.067476	271.085134	-3731.572436	756.072732	39.717949	-3648.152493	734.353761	46.987684	-3618.782078	773.319320	55.988099	-3624.940807	682.721124	73.189059	-3579.369663	629.223011	93.249382	-3594.915515	638.367673	209.087526	-3583.141835	472.745969	135.113042	-3637.149308	454.038541	68.112198	-3612.804244	436.952076	100.047930	-3658.021431	367.772904	125.316575	-3768.905085	277.914808	93.822577	-3763.144700	277.916535	180.903412	-3857.764316	236.898070	131.885731	-3651.567267	196.151368	169.845157	-3679.409426	188.210301	65.800980	-3644.665312	202.263462	121.349161	-3909.656530	766.535790	400.950330	-3907.848104	704.224368	385.516441	-3878.982423	693.808628	368.450968	-3976.238264	652.262581	383.572713	-4140.448107	525.548741	348.633844	-4131.625174	515.602720	220.880443	-4253.733872	331.076282	304.855176	-4358.396854	333.230794	339.228457	-4329.319384	296.848926	326.719629	-4357.401132	256.654616	294.984056	-4448.300815	240.324772	318.040225	-4430.272408	242.795726	235.479536	-4525.365858	281.472839	259.783325	-4421.979116	88.354566	247.620252	-4430.973601	92.456799	289.080982	-4482.886598	103.722066	333.570057	
364	1.815000	-3425.124381	1498.797778	168.451772	-3558.193511	1554.204782	167.681958	-3560.796724	1551.553589	294.735430	-3692.819454	1456.736039	256.174308	-3861.397428	1159.303834	245.927155	-3594.986610	1331.218578	203.969175	-3640.388042	1461.034027	59.860821	-3791.910652	1408.211971	-45.605465	-3806.768217	1362.460429	-50.436191	-3852.268023	1392.922736	-72.624855	-3936.206956	1390.540159	-86.956129	-3959.902555	1360.409789	1.854954	-3948.731438	1112.790845	-123.408398	-3886.062521	1122.375862	-86.641080	-3858.780719	1038.520829	-120.439419	-3601.722124	1395.602624	397.111656	-3598.619577	1222.844842	470.684566	-3574.277141	1191.478773	444.216842	-3595.678057	1153.376320	485.357915	-3592.903780	1043.649530	474.762482	-3676.034467	1031.961644	442.546517	-3506.557362	1130.770670	241.596244	-3462.915499	1068.504888	233.438338	-3442.913523	1168.485441	206.802823	-3785.518181	979.529060	102.094277	-3774.008003	942.611704	344.691107	-3920.835693	1072.288023	243.060554	-3941.333658	1044.470583	217.607790	-3933.691723	1044.332996	273.229188	-3708.495949	757.098825	39.335775	-3625.447314	734.150500	46.037388	-3595.573201	772.914631	54.110974	-3602.630117	682.607950	72.342392	-3556.513032	628.490340	91.474110	-3571.281436	637.306385	206.571174	-3553.107741	470.833935	134.365879	-3605.186292	447.879680	66.976354	-3580.425949	433.037202	99.877662	-3622.366339	361.971447	125.736488	-3728.760188	266.276989	95.188020	-3722.445803	267.430073	182.255926	-3815.366787	221.340930	134.174570	-3606.983520	191.578635	171.350107	-3634.833275	180.281521	67.480000	-3600.641458	197.414566	122.731372	-3881.675093	768.565956	400.310627	-3879.501267	706.229041	384.830428	-3850.635999	696.053068	367.603683	-3947.594117	653.516425	382.604536	-4111.348681	527.120294	348.620465	-4102.916215	517.266859	221.405758	-4231.126821	337.267917	304.983029	-4335.601587	343.216181	339.546890	-4308.107188	305.670664	326.522491	-4337.372064	266.950172	294.952235	-4428.734416	253.666530	318.438234	-4410.749862	256.217237	235.695925	-4503.270473	300.130489	260.906706	-4410.716761	99.973101	245.208727	-4419.024193	103.848150	286.972208	-4470.401604	118.562953	331.650728	
365	1.820000	-3399.273631	1500.540338	166.108193	-3532.171267	1556.086394	165.331303	-3534.580134	1553.859843	292.305877	-3666.776404	1459.340833	254.283713	-3836.176126	1163.059899	247.181429	-3569.541033	1333.571494	202.441264	-3615.023634	1461.179416	56.922276	-3767.307100	1406.346617	-47.008076	-3781.615690	1360.026821	-51.428804	-3827.563482	1389.880384	-73.554174	-3911.343183	1386.535688	-87.252974	-3934.097487	1356.877095	2.017665	-3919.549390	1107.619317	-119.592547	-3856.782615	1118.910470	-83.536388	-3828.339289	1035.206257	-116.427065	-3576.392361	1398.166622	395.901075	-3575.475367	1226.608660	472.394885	-3551.301726	1194.523479	446.649359	-3573.290882	1157.415904	488.408972	-3571.696636	1047.625902	479.771170	-3655.172618	1036.227720	448.037604	-3484.124131	1123.511127	243.373280	-3441.692170	1060.263726	237.752000	-3419.909758	1158.682176	206.859731	-3761.096387	982.371836	102.560673	-3747.668517	945.366923	344.128115	-3895.426952	1075.940176	244.688520	-3915.992586	1047.982772	219.357227	-3907.837929	1047.758846	274.935003	-3685.922529	757.468979	38.963726	-3603.328694	733.070672	44.983580	-3572.796645	771.490736	52.074889	-3581.001925	681.563604	71.346880	-3534.582828	626.654417	89.530559	-3548.508063	635.153993	204.059275	-3524.363422	468.180985	133.273135	-3574.623342	441.401519	65.725844	-3549.462080	428.626187	99.416305	-3588.128489	355.909315	125.871043	-3689.946401	254.856053	96.355822	-3683.210528	257.302050	183.412541	-3774.315103	206.506846	136.257352	-3564.389022	187.181022	172.859419	-3592.013893	172.101285	69.146737	-3558.516595	192.521830	124.106336	-3853.513993	770.469329	399.716990	-3850.606459	708.130204	384.341591	-3821.660112	698.282858	367.002478	-3918.035275	654.300281	381.803327	-4080.448908	527.344463	348.725733	-4072.291731	517.438999	222.007131	-4207.278667	343.151037	304.907178	-4311.362679	353.310546	339.778658	-4285.711800	314.543060	326.130357	-4316.279379	277.608667	294.678276	-4407.886622	267.760161	318.677893	-4390.139775	270.661675	235.762668	-4479.967025	319.287799	262.237093	-4397.933406	113.537904	242.439403	-4405.512741	116.925076	284.472941	-4456.006659	134.737545	329.667934	
366	1.825000	-3373.177163	1502.010665	163.950880	-3505.890935	1557.764729	163.120403	-3508.124249	1555.896922	290.032424	-3640.518225	1461.753289	252.379666	-3811.169494	1167.054412	248.294345	-3543.975578	1335.698985	201.057797	-3589.606048	1461.016964	54.022196	-3742.462357	1403.510459	-48.513322	-3756.082629	1356.718513	-52.474329	-3802.530660	1385.683949	-74.720611	-3886.125856	1380.978265	-87.970889	-3908.079958	1351.958499	1.822521	-3889.389497	1101.245236	-115.548565	-3826.694276	1114.354062	-80.044266	-3796.914003	1030.832999	-111.701629	-3550.977262	1400.386427	394.848400	-3552.894778	1230.102914	474.332077	-3528.893913	1197.279827	449.378230	-3551.648475	1161.208097	491.641929	-3551.371507	1051.384527	484.919492	-3635.122187	1040.670614	453.461419	-3461.752499	1114.925121	245.881922	-3420.965891	1050.570763	243.061680	-3396.624098	1146.949083	208.108279	-3736.823646	985.112421	102.925431	-3721.582537	948.393899	343.585476	-3870.264275	1079.686079	245.964002	-3890.859245	1051.587719	220.702033	-3882.265938	1051.263830	276.225746	-3663.788744	757.271219	38.604496	-3581.725998	731.257582	43.835051	-3550.414227	769.191921	49.930225	-3559.977659	679.709417	70.190629	-3513.506919	623.807653	87.462084	-3526.461643	631.975428	201.628591	-3496.902075	464.841104	131.826131	-3545.575658	434.702164	64.378693	-3519.993093	423.783559	98.639993	-3555.406048	349.638814	125.701510	-3652.673310	243.753827	97.328315	-3645.621669	247.594255	184.361863	-3734.875745	192.508201	138.145296	-3523.956042	182.912833	174.318421	-3551.168262	163.729562	70.763817	-3518.463985	187.569089	125.416901	-3825.192609	772.204999	399.200378	-3821.211977	709.915411	384.049229	-3792.129510	700.478157	366.622355	-3887.647573	654.640527	381.158884	-4047.919923	526.382461	348.923809	-4039.961567	516.321699	222.616990	-4182.123070	348.819456	304.644471	-4285.586554	363.496307	339.962911	-4261.993571	323.525900	325.623156	-4293.951360	288.621285	294.216256	-4385.586972	282.494457	318.763652	-4368.222449	286.000178	235.741141	-4455.238059	338.859859	263.811137	-4383.512541	128.833909	239.413010	-4390.361427	131.545446	281.676513	-4439.651868	152.053595	327.686526	
